<?xml version="1.0" encoding="UTF-8" standalone="no"?>
<!DOCTYPE svg PUBLIC "-//W3C//DTD SVG 1.1//EN"
 "http://www.w3.org/Graphics/SVG/1.1/DTD/svg11.dtd">
<!-- Generated by graphviz version 2.28.0 (20121008.1126)
 -->
<!-- Title: G Pages: 1 -->
<svg width="308pt" height="366pt"
 viewBox="0.00 0.00 308.00 366.00" xmlns="http://www.w3.org/2000/svg" xmlns:xlink="http://www.w3.org/1999/xlink">
<g id="graph1" class="graph" transform="scale(1 1) rotate(0) translate(4 362)">
<title>G</title>
<polygon fill="white" stroke="white" points="-4,5 -4,-362 305,-362 305,5 -4,5"/>
<g id="graph2" class="cluster"><title>cluster_global</title>
<polyline fill="none" stroke="gray" points="196,-8 280,-8 "/>
<path fill="none" stroke="gray" d="M280,-8C286,-8 292,-14 292,-20"/>
<polyline fill="none" stroke="gray" points="292,-20 292,-338 "/>
<path fill="none" stroke="gray" d="M292,-338C292,-344 286,-350 280,-350"/>
<polyline fill="none" stroke="gray" points="280,-350 196,-350 "/>
<path fill="none" stroke="gray" d="M196,-350C190,-350 184,-344 184,-338"/>
<polyline fill="none" stroke="gray" points="184,-338 184,-20 "/>
<path fill="none" stroke="gray" d="M184,-20C184,-14 190,-8 196,-8"/>
<text text-anchor="middle" x="238" y="-337.2" font-family="Times,serif" font-size="11.00" fill="gray">global</text>
</g>
<!-- \\UTCW_Config -->
<g id="node2" class="node"><title>\\UTCW_Config</title>
<a xlink:href="utcw-config.html" xlink:title="UTCW_Config" target="_parent">
<polygon fill="none" stroke="black" points="283.5,-322 192.5,-322 192.5,-286 283.5,-286 283.5,-322"/>
<text text-anchor="middle" x="238" y="-301.2" font-family="Courier,monospace" font-size="11.00">UTCW_Config</text>
</a>
</g>
<!-- \\UTCW_Data -->
<g id="node3" class="node"><title>\\UTCW_Data</title>
<a xlink:href="utcw-data.html" xlink:title="UTCW_Data" target="_parent">
<polygon fill="none" stroke="black" points="276.5,-268 199.5,-268 199.5,-232 276.5,-232 276.5,-268"/>
<text text-anchor="middle" x="238" y="-247.2" font-family="Courier,monospace" font-size="11.00">UTCW_Data</text>
</a>
</g>
<!-- \\UTCW_Render -->
<g id="node4" class="node"><title>\\UTCW_Render</title>
<a xlink:href="utcw-render.html" xlink:title="UTCW_Render" target="_parent">
<polygon fill="none" stroke="black" points="283.5,-214 192.5,-214 192.5,-178 283.5,-178 283.5,-214"/>
<text text-anchor="middle" x="238" y="-193.2" font-family="Courier,monospace" font-size="11.00">UTCW_Render</text>
</a>
</g>
<!-- \\UTCW_Term -->
<g id="node5" class="node"><title>\\UTCW_Term</title>
<a xlink:href="utcw-term.html" xlink:title="UTCW_Term" target="_parent">
<polygon fill="none" stroke="black" points="276.5,-160 199.5,-160 199.5,-124 276.5,-124 276.5,-160"/>
<text text-anchor="middle" x="238" y="-139.2" font-family="Courier,monospace" font-size="11.00">UTCW_Term</text>
</a>
</g>
<!-- \\UTCW -->
<g id="node6" class="node"><title>\\UTCW</title>
<a xlink:href="utcw-widget.html" xlink:title="UTCW" target="_parent">
<polygon fill="none" stroke="black" points="265,-106 211,-106 211,-70 265,-70 265,-106"/>
<text text-anchor="middle" x="238" y="-85.2" font-family="Courier,monospace" font-size="11.00">UTCW</text>
</a>
</g>
<!-- \\WP_Widget -->
<g id="node9" class="node"><title>\\WP_Widget</title>
<ellipse fill="none" stroke="black" cx="60" cy="-88" rx="59.5901" ry="18"/>
<text text-anchor="middle" x="60" y="-84.3" font-family="Times,serif" font-size="14.00" fill="gray">\WP_Widget</text>
</g>
<!-- \\UTCW&#45;&gt;\\WP_Widget -->
<g id="edge3" class="edge"><title>\\UTCW&#45;&gt;\\WP_Widget</title>
<path fill="none" stroke="black" d="M210.651,-88C189.385,-88 158.465,-88 130.245,-88"/>
<polygon fill="none" stroke="black" points="129.993,-84.5001 119.993,-88 129.993,-91.5001 129.993,-84.5001"/>
</g>
<!-- \\UTCW_Plugin -->
<g id="node7" class="node"><title>\\UTCW_Plugin</title>
<a xlink:href="utcw.html" xlink:title="UTCW_Plugin" target="_parent">
<polygon fill="none" stroke="black" points="283.5,-52 192.5,-52 192.5,-16 283.5,-16 283.5,-52"/>
<text text-anchor="middle" x="238" y="-31.2" font-family="Courier,monospace" font-size="11.00">UTCW_Plugin</text>
</a>
</g>
</g>
</svg>
