<?xml version="1.0" encoding="UTF-8" standalone="no"?>
<!DOCTYPE svg PUBLIC "-//W3C//DTD SVG 1.1//EN"
 "http://www.w3.org/Graphics/SVG/1.1/DTD/svg11.dtd">
<!-- Generated by graphviz version 2.30.1 (20130222.1027)
 -->
<!-- Title: G Pages: 1 -->
<svg width="458pt" height="1104pt"
 viewBox="0.00 0.00 458.00 1104.00" xmlns="http://www.w3.org/2000/svg" xmlns:xlink="http://www.w3.org/1999/xlink">
<g id="graph0" class="graph" transform="scale(1 1) rotate(0) translate(4 1100)">
<title>G</title>
<polygon fill="white" stroke="white" points="-4,5 -4,-1100 455,-1100 455,5 -4,5"/>
<g id="clust1" class="cluster"><title>cluster_global</title>
<path fill="none" stroke="gray" d="M20,-44C20,-44 430,-44 430,-44 436,-44 442,-50 442,-56 442,-56 442,-1076 442,-1076 442,-1082 436,-1088 430,-1088 430,-1088 20,-1088 20,-1088 14,-1088 8,-1082 8,-1076 8,-1076 8,-56 8,-56 8,-50 14,-44 20,-44"/>
<text text-anchor="middle" x="225" y="-1075.2" font-family="Times,serif" font-size="11.00" fill="gray">global</text>
</g>
<!-- \\UTCW_Config -->
<g id="node1" class="node"><title>\\UTCW_Config</title>
<g id="a_node1"><a xlink:href="Config.Config.html" xlink:title="«abstract»&lt;br/&gt;UTCW_Config" target="_parent">
<polygon fill="none" stroke="black" points="149,-1033 57,-1033 57,-997 149,-997 149,-1033"/>
<text text-anchor="start" x="69" y="-1018.7" font-family="Courier,monospace" font-size="11.00">«abstract»</text>
<text text-anchor="start" x="65.5" y="-1007.7" font-family="Courier,monospace" font-size="11.00">UTCW_Config</text>
</a>
</g>
</g>
<!-- \\UTCW_DataConfig -->
<g id="node2" class="node"><title>\\UTCW_DataConfig</title>
<g id="a_node2"><a xlink:href="Config.DataConfig.html" xlink:title="UTCW_DataConfig" target="_parent">
<polygon fill="none" stroke="black" points="407,-1060 289,-1060 289,-1024 407,-1024 407,-1060"/>
<text text-anchor="middle" x="348" y="-1039.2" font-family="Courier,monospace" font-size="11.00">UTCW_DataConfig</text>
</a>
</g>
</g>
<!-- \\UTCW_DataConfig&#45;&gt;\\UTCW_Config -->
<g id="edge1" class="edge"><title>\\UTCW_DataConfig&#45;&gt;\\UTCW_Config</title>
<path fill="none" stroke="black" d="M288.795,-1035.53C249.484,-1031.16 197.907,-1025.43 159.234,-1021.14"/>
<polygon fill="none" stroke="black" points="159.519,-1017.65 149.194,-1020.02 158.746,-1024.6 159.519,-1017.65"/>
</g>
<!-- \\UTCW_RenderConfig -->
<g id="node3" class="node"><title>\\UTCW_RenderConfig</title>
<g id="a_node3"><a xlink:href="Config.RenderConfig.html" xlink:title="UTCW_RenderConfig" target="_parent">
<polygon fill="none" stroke="black" points="413.5,-1006 282.5,-1006 282.5,-970 413.5,-970 413.5,-1006"/>
<text text-anchor="middle" x="348" y="-985.2" font-family="Courier,monospace" font-size="11.00">UTCW_RenderConfig</text>
</a>
</g>
</g>
<!-- \\UTCW_RenderConfig&#45;&gt;\\UTCW_Config -->
<g id="edge2" class="edge"><title>\\UTCW_RenderConfig&#45;&gt;\\UTCW_Config</title>
<path fill="none" stroke="black" d="M282.2,-995.2C243.774,-999.47 195.595,-1004.82 159.025,-1008.89"/>
<polygon fill="none" stroke="black" points="158.588,-1005.41 149.035,-1010 159.361,-1012.37 158.588,-1005.41"/>
</g>
<!-- \\UTCW_ArrayType -->
<g id="node4" class="node"><title>\\UTCW_ArrayType</title>
<g id="a_node4"><a xlink:href="Config.Type.ArrayType.html" xlink:title="UTCW_ArrayType" target="_parent">
<polygon fill="none" stroke="black" points="403.5,-952 292.5,-952 292.5,-916 403.5,-916 403.5,-952"/>
<text text-anchor="middle" x="348" y="-931.2" font-family="Courier,monospace" font-size="11.00">UTCW_ArrayType</text>
</a>
</g>
</g>
<!-- \\UTCW_Type -->
<g id="node11" class="node"><title>\\UTCW_Type</title>
<g id="a_node11"><a xlink:href="Config.Type.Type.html" xlink:title="«abstract»&lt;br/&gt;UTCW_Type" target="_parent">
<polygon fill="none" stroke="black" points="145.5,-790 60.5,-790 60.5,-754 145.5,-754 145.5,-790"/>
<text text-anchor="start" x="69" y="-775.7" font-family="Courier,monospace" font-size="11.00">«abstract»</text>
<text text-anchor="start" x="72.5" y="-764.7" font-family="Courier,monospace" font-size="11.00">UTCW_Type</text>
</a>
</g>
</g>
<!-- \\UTCW_ArrayType&#45;&gt;\\UTCW_Type -->
<g id="edge3" class="edge"><title>\\UTCW_ArrayType&#45;&gt;\\UTCW_Type</title>
<path fill="none" stroke="black" d="M292.144,-920.136C281.817,-916.544 271.338,-912.19 262,-907 208.734,-877.393 156.976,-828.086 127.924,-797.964"/>
<polygon fill="none" stroke="black" points="130.126,-795.201 120.694,-790.376 125.058,-800.03 130.126,-795.201"/>
</g>
<!-- \\UTCW_BooleanType -->
<g id="node5" class="node"><title>\\UTCW_BooleanType</title>
<g id="a_node5"><a xlink:href="Config.Type.BooleanType.html" xlink:title="UTCW_BooleanType" target="_parent">
<polygon fill="none" stroke="black" points="410.5,-898 285.5,-898 285.5,-862 410.5,-862 410.5,-898"/>
<text text-anchor="middle" x="348" y="-877.2" font-family="Courier,monospace" font-size="11.00">UTCW_BooleanType</text>
</a>
</g>
</g>
<!-- \\UTCW_BooleanType&#45;&gt;\\UTCW_Type -->
<g id="edge4" class="edge"><title>\\UTCW_BooleanType&#45;&gt;\\UTCW_Type</title>
<path fill="none" stroke="black" d="M285.735,-861.887C277.677,-859.113 269.588,-856.125 262,-853 220.752,-836.014 175.649,-812.348 144.23,-794.982"/>
<polygon fill="none" stroke="black" points="145.782,-791.841 135.342,-790.036 142.378,-797.958 145.782,-791.841"/>
</g>
<!-- \\UTCW_ColorType -->
<g id="node6" class="node"><title>\\UTCW_ColorType</title>
<g id="a_node6"><a xlink:href="Config.Type.ColorType.html" xlink:title="UTCW_ColorType" target="_parent">
<polygon fill="none" stroke="black" points="403.5,-844 292.5,-844 292.5,-808 403.5,-808 403.5,-844"/>
<text text-anchor="middle" x="348" y="-823.2" font-family="Courier,monospace" font-size="11.00">UTCW_ColorType</text>
</a>
</g>
</g>
<!-- \\UTCW_ColorType&#45;&gt;\\UTCW_Type -->
<g id="edge5" class="edge"><title>\\UTCW_ColorType&#45;&gt;\\UTCW_Type</title>
<path fill="none" stroke="black" d="M292.466,-813.881C251.445,-804.765 195.612,-792.358 155.378,-783.417"/>
<polygon fill="none" stroke="black" points="156.025,-779.976 145.504,-781.223 154.506,-786.809 156.025,-779.976"/>
</g>
<!-- \\UTCW_IntegerType -->
<g id="node7" class="node"><title>\\UTCW_IntegerType</title>
<g id="a_node7"><a xlink:href="Config.Type.IntegerType.html" xlink:title="UTCW_IntegerType" target="_parent">
<polygon fill="none" stroke="black" points="410.5,-790 285.5,-790 285.5,-754 410.5,-754 410.5,-790"/>
<text text-anchor="middle" x="348" y="-769.2" font-family="Courier,monospace" font-size="11.00">UTCW_IntegerType</text>
</a>
</g>
</g>
<!-- \\UTCW_IntegerType&#45;&gt;\\UTCW_Type -->
<g id="edge6" class="edge"><title>\\UTCW_IntegerType&#45;&gt;\\UTCW_Type</title>
<path fill="none" stroke="black" d="M285.367,-772C245.396,-772 193.9,-772 155.999,-772"/>
<polygon fill="none" stroke="black" points="155.691,-768.5 145.691,-772 155.691,-775.5 155.691,-768.5"/>
</g>
<!-- \\UTCW_MeasurementType -->
<g id="node8" class="node"><title>\\UTCW_MeasurementType</title>
<g id="a_node8"><a xlink:href="Config.Type.MeasurementType.html" xlink:title="UTCW_MeasurementType" target="_parent">
<polygon fill="none" stroke="black" points="424,-736 272,-736 272,-700 424,-700 424,-736"/>
<text text-anchor="middle" x="348" y="-715.2" font-family="Courier,monospace" font-size="11.00">UTCW_MeasurementType</text>
</a>
</g>
</g>
<!-- \\UTCW_MeasurementType&#45;&gt;\\UTCW_Type -->
<g id="edge7" class="edge"><title>\\UTCW_MeasurementType&#45;&gt;\\UTCW_Type</title>
<path fill="none" stroke="black" d="M271.777,-734.716C234.134,-743.081 189.523,-752.995 155.767,-760.496"/>
<polygon fill="none" stroke="black" points="154.662,-757.156 145.66,-762.742 156.181,-763.99 154.662,-757.156"/>
</g>
<!-- \\UTCW_SetType -->
<g id="node9" class="node"><title>\\UTCW_SetType</title>
<g id="a_node9"><a xlink:href="Config.Type.SetType.html" xlink:title="UTCW_SetType" target="_parent">
<polygon fill="none" stroke="black" points="397,-682 299,-682 299,-646 397,-646 397,-682"/>
<text text-anchor="middle" x="348" y="-661.2" font-family="Courier,monospace" font-size="11.00">UTCW_SetType</text>
</a>
</g>
</g>
<!-- \\UTCW_SetType&#45;&gt;\\UTCW_Type -->
<g id="edge8" class="edge"><title>\\UTCW_SetType&#45;&gt;\\UTCW_Type</title>
<path fill="none" stroke="black" d="M298.847,-677.764C286.68,-681.658 273.74,-686.165 262,-691 220.752,-707.986 175.649,-731.652 144.23,-749.018"/>
<polygon fill="none" stroke="black" points="142.378,-746.042 135.342,-753.964 145.782,-752.159 142.378,-746.042"/>
</g>
<!-- \\UTCW_StringType -->
<g id="node10" class="node"><title>\\UTCW_StringType</title>
<g id="a_node10"><a xlink:href="Config.Type.StringType.html" xlink:title="UTCW_StringType" target="_parent">
<polygon fill="none" stroke="black" points="407,-628 289,-628 289,-592 407,-592 407,-628"/>
<text text-anchor="middle" x="348" y="-607.2" font-family="Courier,monospace" font-size="11.00">UTCW_StringType</text>
</a>
</g>
</g>
<!-- \\UTCW_StringType&#45;&gt;\\UTCW_Type -->
<g id="edge9" class="edge"><title>\\UTCW_StringType&#45;&gt;\\UTCW_Type</title>
<path fill="none" stroke="black" d="M288.998,-624.981C279.703,-628.348 270.391,-632.336 262,-637 208.734,-666.607 156.976,-715.914 127.924,-746.036"/>
<polygon fill="none" stroke="black" points="125.058,-743.97 120.694,-753.624 130.126,-748.799 125.058,-743.97"/>
</g>
<!-- \\UTCW_Data -->
<g id="node12" class="node"><title>\\UTCW_Data</title>
<g id="a_node12"><a xlink:href="Data.html" xlink:title="UTCW_Data" target="_parent">
<polygon fill="none" stroke="black" points="386.5,-574 309.5,-574 309.5,-538 386.5,-538 386.5,-574"/>
<text text-anchor="middle" x="348" y="-553.2" font-family="Courier,monospace" font-size="11.00">UTCW_Data</text>
</a>
</g>
</g>
<!-- \\UTCW_QueryBuilder -->
<g id="node13" class="node"><title>\\UTCW_QueryBuilder</title>
<g id="a_node13"><a xlink:href="Database.QueryBuilder.html" xlink:title="UTCW_QueryBuilder" target="_parent">
<polygon fill="none" stroke="black" points="413.5,-520 282.5,-520 282.5,-484 413.5,-484 413.5,-520"/>
<text text-anchor="middle" x="348" y="-499.2" font-family="Courier,monospace" font-size="11.00">UTCW_QueryBuilder</text>
</a>
</g>
</g>
<!-- \\UTCW_QTranslateHandler -->
<g id="node14" class="node"><title>\\UTCW_QTranslateHandler</title>
<g id="a_node14"><a xlink:href="Language.QTranslateHandler.html" xlink:title="UTCW_QTranslateHandler" target="_parent">
<polygon fill="none" stroke="black" points="430.5,-466 265.5,-466 265.5,-430 430.5,-430 430.5,-466"/>
<text text-anchor="middle" x="348" y="-445.2" font-family="Courier,monospace" font-size="11.00">UTCW_QTranslateHandler</text>
</a>
</g>
</g>
<!-- \\UTCW_TranslationHandler -->
<g id="node15" class="node"><title>\\UTCW_TranslationHandler</title>
<g id="a_node15"><a xlink:href="Language.TranslationHandler.html" xlink:title="«abstract»&lt;br/&gt;UTCW_TranslationHandler" target="_parent">
<polygon fill="none" stroke="black" points="189.5,-439 16.5,-439 16.5,-403 189.5,-403 189.5,-439"/>
<text text-anchor="start" x="69" y="-424.7" font-family="Courier,monospace" font-size="11.00">«abstract»</text>
<text text-anchor="start" x="25" y="-413.7" font-family="Courier,monospace" font-size="11.00">UTCW_TranslationHandler</text>
</a>
</g>
</g>
<!-- \\UTCW_QTranslateHandler&#45;&gt;\\UTCW_TranslationHandler -->
<g id="edge10" class="edge"><title>\\UTCW_QTranslateHandler&#45;&gt;\\UTCW_TranslationHandler</title>
<path fill="none" stroke="black" d="M265.409,-438.934C244.34,-436.593 221.472,-434.052 199.753,-431.639"/>
<polygon fill="none" stroke="black" points="199.858,-428.129 189.533,-430.504 199.085,-435.087 199.858,-428.129"/>
</g>
<!-- \\UTCW_WPMLHandler -->
<g id="node16" class="node"><title>\\UTCW_WPMLHandler</title>
<g id="a_node16"><a xlink:href="Language.WPMLHandler.html" xlink:title="UTCW_WPMLHandler" target="_parent">
<polygon fill="none" stroke="black" points="410.5,-412 285.5,-412 285.5,-376 410.5,-376 410.5,-412"/>
<text text-anchor="middle" x="348" y="-391.2" font-family="Courier,monospace" font-size="11.00">UTCW_WPMLHandler</text>
</a>
</g>
</g>
<!-- \\UTCW_WPMLHandler&#45;&gt;\\UTCW_TranslationHandler -->
<g id="edge11" class="edge"><title>\\UTCW_WPMLHandler&#45;&gt;\\UTCW_TranslationHandler</title>
<path fill="none" stroke="black" d="M285.367,-400.848C259.456,-403.727 228.704,-407.144 199.95,-410.339"/>
<polygon fill="none" stroke="black" points="199.427,-406.875 189.874,-411.458 200.2,-413.833 199.427,-406.875"/>
</g>
<!-- \\UTCW_Plugin -->
<g id="node17" class="node"><title>\\UTCW_Plugin</title>
<g id="a_node17"><a xlink:href="Plugin.html" xlink:title="UTCW_Plugin" target="_parent">
<polygon fill="none" stroke="black" points="393.5,-358 302.5,-358 302.5,-322 393.5,-322 393.5,-358"/>
<text text-anchor="middle" x="348" y="-337.2" font-family="Courier,monospace" font-size="11.00">UTCW_Plugin</text>
</a>
</g>
</g>
<!-- \\UTCW_Render -->
<g id="node18" class="node"><title>\\UTCW_Render</title>
<g id="a_node18"><a xlink:href="Render.html" xlink:title="UTCW_Render" target="_parent">
<polygon fill="none" stroke="black" points="393.5,-304 302.5,-304 302.5,-268 393.5,-268 393.5,-304"/>
<text text-anchor="middle" x="348" y="-283.2" font-family="Courier,monospace" font-size="11.00">UTCW_Render</text>
</a>
</g>
</g>
<!-- \\UTCW_PopularityStrategy -->
<g id="node19" class="node"><title>\\UTCW_PopularityStrategy</title>
<g id="a_node19"><a xlink:href="Selection.PopularityStrategy.html" xlink:title="UTCW_PopularityStrategy" target="_parent">
<polygon fill="none" stroke="black" points="434,-250 262,-250 262,-214 434,-214 434,-250"/>
<text text-anchor="middle" x="348" y="-229.2" font-family="Courier,monospace" font-size="11.00">UTCW_PopularityStrategy</text>
</a>
</g>
</g>
<!-- \\UTCW_SelectionStrategy -->
<g id="node21" class="node"><title>\\UTCW_SelectionStrategy</title>
<g id="a_node21"><a xlink:href="Selection.SelectionStrategy.html" xlink:title="«abstract»&lt;br/&gt;UTCW_SelectionStrategy" target="_parent">
<polygon fill="none" stroke="black" points="186,-223 20,-223 20,-187 186,-187 186,-223"/>
<text text-anchor="start" x="69" y="-208.7" font-family="Courier,monospace" font-size="11.00">«abstract»</text>
<text text-anchor="start" x="28.5" y="-197.7" font-family="Courier,monospace" font-size="11.00">UTCW_SelectionStrategy</text>
</a>
</g>
</g>
<!-- \\UTCW_PopularityStrategy&#45;&gt;\\UTCW_SelectionStrategy -->
<g id="edge12" class="edge"><title>\\UTCW_PopularityStrategy&#45;&gt;\\UTCW_SelectionStrategy</title>
<path fill="none" stroke="black" d="M261.669,-222.519C240.537,-220.171 217.798,-217.644 196.348,-215.261"/>
<polygon fill="none" stroke="black" points="196.591,-211.766 186.265,-214.141 195.818,-218.724 196.591,-211.766"/>
</g>
<!-- \\UTCW_RandomStrategy -->
<g id="node20" class="node"><title>\\UTCW_RandomStrategy</title>
<g id="a_node20"><a xlink:href="Selection.RandomStrategy.html" xlink:title="UTCW_RandomStrategy" target="_parent">
<polygon fill="none" stroke="black" points="420.5,-196 275.5,-196 275.5,-160 420.5,-160 420.5,-196"/>
<text text-anchor="middle" x="348" y="-175.2" font-family="Courier,monospace" font-size="11.00">UTCW_RandomStrategy</text>
</a>
</g>
</g>
<!-- \\UTCW_RandomStrategy&#45;&gt;\\UTCW_SelectionStrategy -->
<g id="edge13" class="edge"><title>\\UTCW_RandomStrategy&#45;&gt;\\UTCW_SelectionStrategy</title>
<path fill="none" stroke="black" d="M275.406,-185.955C250.579,-188.713 222.386,-191.846 196.138,-194.762"/>
<polygon fill="none" stroke="black" points="195.736,-191.285 186.184,-195.868 196.509,-198.243 195.736,-191.285"/>
</g>
<!-- \\UTCW_Term -->
<g id="node22" class="node"><title>\\UTCW_Term</title>
<g id="a_node22"><a xlink:href="Term.html" xlink:title="UTCW_Term" target="_parent">
<polygon fill="none" stroke="black" points="386.5,-142 309.5,-142 309.5,-106 386.5,-106 386.5,-142"/>
<text text-anchor="middle" x="348" y="-121.2" font-family="Courier,monospace" font-size="11.00">UTCW_Term</text>
</a>
</g>
</g>
<!-- \\UTCW_Widget -->
<g id="node23" class="node"><title>\\UTCW_Widget</title>
<g id="a_node23"><a xlink:href="Widget.html" xlink:title="UTCW_Widget" target="_parent">
<polygon fill="none" stroke="black" points="393.5,-88 302.5,-88 302.5,-52 393.5,-52 393.5,-88"/>
<text text-anchor="middle" x="348" y="-67.2" font-family="Courier,monospace" font-size="11.00">UTCW_Widget</text>
</a>
</g>
</g>
<!-- \\WP_Widget -->
<g id="node24" class="node"><title>\\WP_Widget</title>
<ellipse fill="none" stroke="black" cx="103" cy="-18" rx="59.5901" ry="18"/>
<text text-anchor="middle" x="103" y="-14.3" font-family="Times,serif" font-size="14.00" fill="gray">\WP_Widget</text>
</g>
<!-- \\UTCW_Widget&#45;&gt;\\WP_Widget -->
<g id="edge14" class="edge"><title>\\UTCW_Widget&#45;&gt;\\WP_Widget</title>
<path fill="none" stroke="black" d="M302.43,-60.4624C263.108,-52.0477 205.522,-39.7249 162.503,-30.5191"/>
<polygon fill="none" stroke="black" points="162.965,-27.0389 152.454,-28.3688 161.5,-33.8839 162.965,-27.0389"/>
</g>
</g>
</svg>
