<?xml version="1.0" encoding="UTF-8" standalone="no"?>
<!DOCTYPE svg PUBLIC "-//W3C//DTD SVG 1.1//EN"
 "http://www.w3.org/Graphics/SVG/1.1/DTD/svg11.dtd">
<!-- Generated by graphviz version 2.30.1 (20130222.1027)
 -->
<!-- Title: G Pages: 1 -->
<svg width="458pt" height="672pt"
 viewBox="0.00 0.00 458.00 672.00" xmlns="http://www.w3.org/2000/svg" xmlns:xlink="http://www.w3.org/1999/xlink">
<g id="graph0" class="graph" transform="scale(1 1) rotate(0) translate(4 668)">
<title>G</title>
<polygon fill="white" stroke="white" points="-4,5 -4,-668 455,-668 455,5 -4,5"/>
<g id="clust1" class="cluster"><title>cluster_global</title>
<path fill="none" stroke="gray" d="M20,-44C20,-44 430,-44 430,-44 436,-44 442,-50 442,-56 442,-56 442,-644 442,-644 442,-650 436,-656 430,-656 430,-656 20,-656 20,-656 14,-656 8,-650 8,-644 8,-644 8,-56 8,-56 8,-50 14,-44 20,-44"/>
<text text-anchor="middle" x="225" y="-643.2" font-family="Times,serif" font-size="11.00" fill="gray">global</text>
</g>
<!-- \\UTCW_Config -->
<g id="node1" class="node"><title>\\UTCW_Config</title>
<g id="a_node1"><a xlink:href="src.Config.html" xlink:title="UTCW_Config" target="_parent">
<polygon fill="none" stroke="black" points="393.5,-628 302.5,-628 302.5,-592 393.5,-592 393.5,-628"/>
<text text-anchor="middle" x="348" y="-607.2" font-family="Courier,monospace" font-size="11.00">UTCW_Config</text>
</a>
</g>
</g>
<!-- \\UTCW_Data -->
<g id="node2" class="node"><title>\\UTCW_Data</title>
<g id="a_node2"><a xlink:href="src.Data.html" xlink:title="UTCW_Data" target="_parent">
<polygon fill="none" stroke="black" points="386.5,-574 309.5,-574 309.5,-538 386.5,-538 386.5,-574"/>
<text text-anchor="middle" x="348" y="-553.2" font-family="Courier,monospace" font-size="11.00">UTCW_Data</text>
</a>
</g>
</g>
<!-- \\UTCW_QueryBuilder -->
<g id="node3" class="node"><title>\\UTCW_QueryBuilder</title>
<g id="a_node3"><a xlink:href="src.Database.QueryBuilder.html" xlink:title="UTCW_QueryBuilder" target="_parent">
<polygon fill="none" stroke="black" points="413.5,-520 282.5,-520 282.5,-484 413.5,-484 413.5,-520"/>
<text text-anchor="middle" x="348" y="-499.2" font-family="Courier,monospace" font-size="11.00">UTCW_QueryBuilder</text>
</a>
</g>
</g>
<!-- \\UTCW_QTranslateHandler -->
<g id="node4" class="node"><title>\\UTCW_QTranslateHandler</title>
<g id="a_node4"><a xlink:href="src.Language.QTranslateHandler.html" xlink:title="UTCW_QTranslateHandler" target="_parent">
<polygon fill="none" stroke="black" points="430.5,-466 265.5,-466 265.5,-430 430.5,-430 430.5,-466"/>
<text text-anchor="middle" x="348" y="-445.2" font-family="Courier,monospace" font-size="11.00">UTCW_QTranslateHandler</text>
</a>
</g>
</g>
<!-- \\UTCW_TranslationHandler -->
<g id="node5" class="node"><title>\\UTCW_TranslationHandler</title>
<g id="a_node5"><a xlink:href="src.Language.TranslationHandler.html" xlink:title="«abstract»&lt;br/&gt;UTCW_TranslationHandler" target="_parent">
<polygon fill="none" stroke="black" points="189.5,-439 16.5,-439 16.5,-403 189.5,-403 189.5,-439"/>
<text text-anchor="start" x="69" y="-424.7" font-family="Courier,monospace" font-size="11.00">«abstract»</text>
<text text-anchor="start" x="25" y="-413.7" font-family="Courier,monospace" font-size="11.00">UTCW_TranslationHandler</text>
</a>
</g>
</g>
<!-- \\UTCW_QTranslateHandler&#45;&gt;\\UTCW_TranslationHandler -->
<g id="edge1" class="edge"><title>\\UTCW_QTranslateHandler&#45;&gt;\\UTCW_TranslationHandler</title>
<path fill="none" stroke="black" d="M265.409,-438.934C244.34,-436.593 221.472,-434.052 199.753,-431.639"/>
<polygon fill="none" stroke="black" points="199.858,-428.129 189.533,-430.504 199.085,-435.087 199.858,-428.129"/>
</g>
<!-- \\UTCW_WPMLHandler -->
<g id="node6" class="node"><title>\\UTCW_WPMLHandler</title>
<g id="a_node6"><a xlink:href="src.Language.WPMLHandler.html" xlink:title="UTCW_WPMLHandler" target="_parent">
<polygon fill="none" stroke="black" points="410.5,-412 285.5,-412 285.5,-376 410.5,-376 410.5,-412"/>
<text text-anchor="middle" x="348" y="-391.2" font-family="Courier,monospace" font-size="11.00">UTCW_WPMLHandler</text>
</a>
</g>
</g>
<!-- \\UTCW_WPMLHandler&#45;&gt;\\UTCW_TranslationHandler -->
<g id="edge2" class="edge"><title>\\UTCW_WPMLHandler&#45;&gt;\\UTCW_TranslationHandler</title>
<path fill="none" stroke="black" d="M285.367,-400.848C259.456,-403.727 228.704,-407.144 199.95,-410.339"/>
<polygon fill="none" stroke="black" points="199.427,-406.875 189.874,-411.458 200.2,-413.833 199.427,-406.875"/>
</g>
<!-- \\UTCW_Plugin -->
<g id="node7" class="node"><title>\\UTCW_Plugin</title>
<g id="a_node7"><a xlink:href="src.Plugin.html" xlink:title="UTCW_Plugin" target="_parent">
<polygon fill="none" stroke="black" points="393.5,-358 302.5,-358 302.5,-322 393.5,-322 393.5,-358"/>
<text text-anchor="middle" x="348" y="-337.2" font-family="Courier,monospace" font-size="11.00">UTCW_Plugin</text>
</a>
</g>
</g>
<!-- \\UTCW_Render -->
<g id="node8" class="node"><title>\\UTCW_Render</title>
<g id="a_node8"><a xlink:href="src.Render.html" xlink:title="UTCW_Render" target="_parent">
<polygon fill="none" stroke="black" points="393.5,-304 302.5,-304 302.5,-268 393.5,-268 393.5,-304"/>
<text text-anchor="middle" x="348" y="-283.2" font-family="Courier,monospace" font-size="11.00">UTCW_Render</text>
</a>
</g>
</g>
<!-- \\UTCW_PopularityStrategy -->
<g id="node9" class="node"><title>\\UTCW_PopularityStrategy</title>
<g id="a_node9"><a xlink:href="src.Selection.PopularityStrategy.html" xlink:title="UTCW_PopularityStrategy" target="_parent">
<polygon fill="none" stroke="black" points="434,-250 262,-250 262,-214 434,-214 434,-250"/>
<text text-anchor="middle" x="348" y="-229.2" font-family="Courier,monospace" font-size="11.00">UTCW_PopularityStrategy</text>
</a>
</g>
</g>
<!-- \\UTCW_SelectionStrategy -->
<g id="node11" class="node"><title>\\UTCW_SelectionStrategy</title>
<g id="a_node11"><a xlink:href="src.Selection.SelectionStrategy.html" xlink:title="«abstract»&lt;br/&gt;UTCW_SelectionStrategy" target="_parent">
<polygon fill="none" stroke="black" points="186,-223 20,-223 20,-187 186,-187 186,-223"/>
<text text-anchor="start" x="69" y="-208.7" font-family="Courier,monospace" font-size="11.00">«abstract»</text>
<text text-anchor="start" x="28.5" y="-197.7" font-family="Courier,monospace" font-size="11.00">UTCW_SelectionStrategy</text>
</a>
</g>
</g>
<!-- \\UTCW_PopularityStrategy&#45;&gt;\\UTCW_SelectionStrategy -->
<g id="edge3" class="edge"><title>\\UTCW_PopularityStrategy&#45;&gt;\\UTCW_SelectionStrategy</title>
<path fill="none" stroke="black" d="M261.669,-222.519C240.537,-220.171 217.798,-217.644 196.348,-215.261"/>
<polygon fill="none" stroke="black" points="196.591,-211.766 186.265,-214.141 195.818,-218.724 196.591,-211.766"/>
</g>
<!-- \\UTCW_RandomStrategy -->
<g id="node10" class="node"><title>\\UTCW_RandomStrategy</title>
<g id="a_node10"><a xlink:href="src.Selection.RandomStrategy.html" xlink:title="UTCW_RandomStrategy" target="_parent">
<polygon fill="none" stroke="black" points="420.5,-196 275.5,-196 275.5,-160 420.5,-160 420.5,-196"/>
<text text-anchor="middle" x="348" y="-175.2" font-family="Courier,monospace" font-size="11.00">UTCW_RandomStrategy</text>
</a>
</g>
</g>
<!-- \\UTCW_RandomStrategy&#45;&gt;\\UTCW_SelectionStrategy -->
<g id="edge4" class="edge"><title>\\UTCW_RandomStrategy&#45;&gt;\\UTCW_SelectionStrategy</title>
<path fill="none" stroke="black" d="M275.406,-185.955C250.579,-188.713 222.386,-191.846 196.138,-194.762"/>
<polygon fill="none" stroke="black" points="195.736,-191.285 186.184,-195.868 196.509,-198.243 195.736,-191.285"/>
</g>
<!-- \\UTCW_Term -->
<g id="node12" class="node"><title>\\UTCW_Term</title>
<g id="a_node12"><a xlink:href="src.Term.html" xlink:title="UTCW_Term" target="_parent">
<polygon fill="none" stroke="black" points="386.5,-142 309.5,-142 309.5,-106 386.5,-106 386.5,-142"/>
<text text-anchor="middle" x="348" y="-121.2" font-family="Courier,monospace" font-size="11.00">UTCW_Term</text>
</a>
</g>
</g>
<!-- \\UTCW_Widget -->
<g id="node13" class="node"><title>\\UTCW_Widget</title>
<g id="a_node13"><a xlink:href="src.Widget.html" xlink:title="UTCW_Widget" target="_parent">
<polygon fill="none" stroke="black" points="393.5,-88 302.5,-88 302.5,-52 393.5,-52 393.5,-88"/>
<text text-anchor="middle" x="348" y="-67.2" font-family="Courier,monospace" font-size="11.00">UTCW_Widget</text>
</a>
</g>
</g>
<!-- \\WP_Widget -->
<g id="node14" class="node"><title>\\WP_Widget</title>
<ellipse fill="none" stroke="black" cx="103" cy="-18" rx="59.5901" ry="18"/>
<text text-anchor="middle" x="103" y="-14.3" font-family="Times,serif" font-size="14.00" fill="gray">\WP_Widget</text>
</g>
<!-- \\UTCW_Widget&#45;&gt;\\WP_Widget -->
<g id="edge5" class="edge"><title>\\UTCW_Widget&#45;&gt;\\WP_Widget</title>
<path fill="none" stroke="black" d="M302.43,-60.4624C263.108,-52.0477 205.522,-39.7249 162.503,-30.5191"/>
<polygon fill="none" stroke="black" points="162.965,-27.0389 152.454,-28.3688 161.5,-33.8839 162.965,-27.0389"/>
</g>
</g>
</svg>
